<?xml version="1.0" encoding="UTF-8"?>
<svg version="1.1" xmlns="http://www.w3.org/2000/svg" width="64" height="64">
<path d="M0 0 C3.0625 1.5625 3.0625 1.5625 5 4 C5.8125 7.75 5.8125 7.75 6 11 C8.64 11 11.28 11 14 11 C14.07420211 15.07502794 14.1286257 19.14979392 14.16479492 23.2253418 C14.17987397 24.61147919 14.2003405 25.99756894 14.22631836 27.38354492 C14.26273716 29.37658146 14.27813018 31.36996723 14.29296875 33.36328125 C14.3086792 34.56251221 14.32438965 35.76174316 14.34057617 36.99731445 C14 40 14 40 12.9309082 41.88989258 C9.9229296 43.61922356 7.25549887 43.38951561 3.8125 43.3984375 C3.11358643 43.40130768 2.41467285 43.40417786 1.69458008 43.40713501 C0.21857899 43.40917425 -1.25744921 43.40365403 -2.73339844 43.39111328 C-4.99215138 43.3750558 -7.24911518 43.3909647 -9.5078125 43.41015625 C-10.94271228 43.40817379 -12.37761095 43.40433006 -13.8125 43.3984375 C-15.11832031 43.39505371 -16.42414062 43.39166992 -17.76953125 43.38818359 C-21 43 -21 43 -22.9309082 41.88989258 C-24.54833261 39.03068218 -24.33572782 36.6272236 -24.29296875 33.36328125 C-24.2784668 31.41518555 -24.2784668 31.41518555 -24.26367188 29.42773438 C-24.23860585 28.05598361 -24.21321101 26.68423882 -24.1875 25.3125 C-24.1724502 23.92905076 -24.1587623 22.54558599 -24.14648438 21.16210938 C-24.11107223 17.77434793 -24.06168054 14.38736861 -24 11 C-21.36 11 -18.72 11 -16 11 C-15.938125 9.9275 -15.87625 8.855 -15.8125 7.75 C-15 4 -15 4 -13.0625 1.5625 C-8.66967984 -0.67873478 -4.83640374 -0.77033032 0 0 Z M-8.8125 5.125 C-11.40528732 6.9813661 -11.40528732 6.9813661 -12 11 C-7.38 11 -2.76 11 2 11 C0.5946347 5.92911263 0.5946347 5.92911263 -2.8125 4.5 C-5.99947542 3.72204916 -5.99947542 3.72204916 -8.8125 5.125 Z " fill="#88B716" transform="translate(37,9)"/>
<path d="M0 0 C3.3 0 6.6 0 10 0 C10 10.56 10 21.12 10 32 C3 32 3 32 1.08081055 30.91479492 C-0.54204391 28.03969948 -0.33596385 25.64524046 -0.29296875 22.36328125 C-0.2784668 20.41518555 -0.2784668 20.41518555 -0.26367188 18.42773438 C-0.23860585 17.05598361 -0.21321101 15.68423882 -0.1875 14.3125 C-0.1724502 12.92905076 -0.1587623 11.54558599 -0.14648438 10.16210938 C-0.11107223 6.77434793 -0.06168054 3.38736861 0 0 Z " fill="#DE333C" transform="translate(13,20)"/>
<path d="M0 0 C2.97 0 5.94 0 9 0 C9 10.56 9 21.12 9 32 C6.03 32 3.06 32 0 32 C0 21.44 0 10.88 0 0 Z " fill="#F4AE02" transform="translate(32,20)"/>
<path d="M0 0 C2.97 0 5.94 0 9 0 C9 10.56 9 21.12 9 32 C6.03 32 3.06 32 0 32 C0 21.44 0 10.88 0 0 Z " fill="#0064D1" transform="translate(23,20)"/>
<path d="M0 0 C3.0625 1.5625 3.0625 1.5625 5 4 C5.8125 7.75 5.8125 7.75 6 11 C4.68 11 3.36 11 2 11 C1.525625 10.195625 1.05125 9.39125 0.5625 8.5625 C-0.75972539 5.80794228 -0.75972539 5.80794228 -3.4375 5.0625 C-6.36063104 4.99120412 -7.63878446 5.29015426 -10 7 C-11.26804566 9.0335948 -11.26804566 9.0335948 -12 11 C-13.32 11 -14.64 11 -16 11 C-15.77407627 7.08398866 -15.53572471 4.67397624 -13.0625 1.5625 C-8.66967984 -0.67873478 -4.83640374 -0.77033032 0 0 Z " fill="#707070" transform="translate(37,9)"/>
</svg>
