<svg width="159" height="33" viewBox="0 0 159 33" fill="none" xmlns="http://www.w3.org/2000/svg">
<path d="M4.71058 9.69338L16.5 2.88675L28.2894 9.69338V23.3066L16.5 30.1132L4.71058 23.3066V9.69338Z" stroke="url(#paint0_linear_730_6)" stroke-width="5"/>
<path d="M144.331 23.576V14.3749V8.38555H147.745L147.716 12.9282H148.295C148.546 11.8287 148.903 10.9125 149.366 10.1795C149.829 9.44646 150.407 8.89672 151.102 8.53022C151.815 8.16372 152.654 7.98047 153.619 7.98047C155.374 7.98047 156.705 8.59773 157.612 9.83225C158.538 11.0668 159.001 13.0054 159.001 15.648V23.576H154.805V16.111C154.805 14.4906 154.564 13.314 154.082 12.581C153.619 11.8287 152.934 11.4526 152.028 11.4526C151.256 11.4526 150.61 11.6937 150.089 12.1759C149.568 12.6581 149.173 13.2947 148.903 14.0856C148.652 14.8571 148.517 15.7252 148.498 16.6896V23.576H144.331Z" fill="url(#paint1_linear_730_6)"/>
<path d="M133.586 23.981C132.062 23.981 130.721 23.682 129.564 23.0841C128.407 22.4668 127.5 21.5699 126.844 20.3932C126.188 19.1973 125.86 17.712 125.86 15.9373C125.86 14.1627 126.188 12.6871 126.844 11.5104C127.519 10.3338 128.435 9.45611 129.593 8.87743C130.77 8.27946 132.1 7.98047 133.586 7.98047C135.11 7.98047 136.45 8.27946 137.608 8.87743C138.784 9.4754 139.7 10.3724 140.356 11.5683C141.031 12.745 141.369 14.2206 141.369 15.9952C141.369 17.7891 141.022 19.2841 140.327 20.48C139.652 21.6567 138.726 22.5343 137.55 23.113C136.392 23.6917 135.071 23.981 133.586 23.981ZM133.73 20.8851C134.483 20.8851 135.11 20.7115 135.611 20.3643C136.132 20.0171 136.518 19.4962 136.769 18.8018C137.039 18.0881 137.174 17.2297 137.174 16.2267C137.174 15.1658 137.029 14.2688 136.74 13.5358C136.47 12.7835 136.064 12.2145 135.524 11.8287C134.984 11.4236 134.299 11.2211 133.47 11.2211C132.756 11.2211 132.139 11.3947 131.618 11.7419C131.097 12.0698 130.702 12.5906 130.432 13.3043C130.162 13.9988 130.027 14.8571 130.027 15.8795C130.027 17.5191 130.355 18.7632 131.011 19.612C131.666 20.4607 132.573 20.8851 133.73 20.8851Z" fill="url(#paint2_linear_730_6)"/>
<path d="M115.679 28.8709C114.02 28.8709 112.651 28.7358 111.571 28.4658C110.51 28.215 109.728 27.8389 109.227 27.3374C108.725 26.8358 108.475 26.2089 108.475 25.4566C108.475 24.5693 108.822 23.846 109.516 23.2866C110.23 22.7272 111.272 22.3896 112.641 22.2739V21.6952C111.599 21.6952 110.799 21.5891 110.24 21.3769C109.68 21.1455 109.401 20.75 109.401 20.1906C109.401 19.6505 109.671 19.1683 110.211 18.7439C110.77 18.3196 111.686 17.982 112.959 17.7312V17.1526C111.763 17.0754 110.828 16.6896 110.153 15.9952C109.478 15.3008 109.14 14.4038 109.14 13.3043C109.14 12.3398 109.41 11.4815 109.95 10.7292C110.49 9.95761 111.291 9.34999 112.352 8.90633C113.432 8.44339 114.753 8.21191 116.316 8.21191H124.012V11.3947L119.238 10.7292V11.3947C120.473 11.5683 121.36 11.8769 121.9 12.3206C122.459 12.7642 122.739 13.3815 122.739 14.1723C122.739 14.9632 122.479 15.6576 121.958 16.2556C121.437 16.8536 120.694 17.3262 119.73 17.6734C118.785 18.0013 117.647 18.1652 116.316 18.1652C116.065 18.1652 115.795 18.1556 115.506 18.1363C115.216 18.117 114.734 18.0688 114.059 17.9916C113.692 18.2617 113.403 18.5028 113.191 18.715C112.998 18.9079 112.902 19.0911 112.902 19.2647C112.902 19.3998 112.969 19.5155 113.104 19.6119C113.258 19.7084 113.451 19.7759 113.683 19.8145C113.934 19.8531 114.184 19.8724 114.435 19.8724H118.775C119.161 19.8724 119.662 19.9013 120.28 19.9592C120.897 19.9977 121.514 20.1424 122.132 20.3932C122.749 20.6439 123.27 21.049 123.694 21.6084C124.118 22.1485 124.33 22.9297 124.33 23.9521C124.33 25.0709 124.012 25.9967 123.376 26.7297C122.758 27.4627 121.804 28.0028 120.511 28.35C119.238 28.6973 117.627 28.8709 115.679 28.8709ZM116.142 25.5434C117.319 25.5434 118.235 25.4759 118.891 25.3409C119.547 25.2252 120.01 25.0226 120.28 24.7333C120.569 24.4632 120.714 24.116 120.714 23.6917C120.714 23.3059 120.627 23.0069 120.453 22.7947C120.299 22.5825 120.087 22.4378 119.817 22.3607C119.566 22.2642 119.306 22.2064 119.036 22.1871C118.785 22.1485 118.563 22.1292 118.37 22.1292H114.724C113.914 22.2064 113.326 22.4282 112.959 22.7947C112.612 23.1419 112.439 23.547 112.439 24.0099C112.439 24.4343 112.574 24.7526 112.844 24.9648C113.114 25.1769 113.519 25.3216 114.059 25.3988C114.618 25.4952 115.313 25.5434 116.142 25.5434ZM116.084 15.9952C117.01 15.9952 117.705 15.7734 118.168 15.3297C118.63 14.8668 118.862 14.2688 118.862 13.5358C118.862 12.7642 118.621 12.1277 118.139 11.6261C117.676 11.1246 116.991 10.8739 116.084 10.8739C115.197 10.8739 114.503 11.1246 114.001 11.6261C113.499 12.1084 113.249 12.7353 113.249 13.5069C113.249 13.9891 113.355 14.4231 113.567 14.8089C113.798 15.1754 114.126 15.4647 114.551 15.6769C114.975 15.8891 115.486 15.9952 116.084 15.9952Z" fill="url(#paint3_linear_730_6)"/>
<path d="M96.2942 23.981C95.4455 23.981 94.6932 23.8171 94.0374 23.4891C93.3815 23.1419 92.8703 22.6501 92.5039 22.0135C92.1374 21.377 91.9541 20.5861 91.9541 19.6409C91.9541 18.8115 92.1084 18.117 92.417 17.5577C92.745 16.9983 93.2176 16.545 93.8348 16.1978C94.4521 15.8505 95.214 15.5612 96.1206 15.3297C97.0272 15.0983 98.0592 14.8957 99.2166 14.7221C99.8338 14.6257 100.335 14.5389 100.721 14.4617C101.126 14.3653 101.425 14.2206 101.618 14.0277C101.811 13.8155 101.907 13.5165 101.907 13.1307C101.907 12.5906 101.715 12.1277 101.329 11.7419C100.943 11.3561 100.335 11.1632 99.5059 11.1632C98.9465 11.1632 98.4257 11.2597 97.9435 11.4526C97.4805 11.6455 97.0754 11.9348 96.7282 12.3206C96.4003 12.7064 96.1592 13.1983 96.0049 13.7962L92.3302 12.6678C92.5617 11.8769 92.8896 11.1922 93.314 10.6135C93.7577 10.0348 94.2881 9.55256 94.9054 9.16677C95.5226 8.76169 96.2267 8.4627 97.0176 8.26981C97.8084 8.07692 98.6668 7.98047 99.5927 7.98047C101.078 7.98047 102.284 8.22159 103.209 8.70382C104.155 9.16677 104.859 9.89976 105.322 10.9028C105.785 11.8866 106.016 13.1597 106.016 14.7221V17.3262C106.016 18.0013 106.026 18.6861 106.045 19.3805C106.084 20.0749 106.122 20.779 106.161 21.4927C106.219 22.1871 106.276 22.8815 106.334 23.576H102.66C102.583 23.0937 102.505 22.544 102.428 21.9267C102.37 21.2902 102.322 20.6536 102.284 20.0171H101.763C101.493 20.7501 101.107 21.4155 100.605 22.0135C100.104 22.6115 99.4866 23.0937 98.7536 23.4602C98.0399 23.8074 97.2201 23.981 96.2942 23.981ZM98.0592 20.9719C98.4257 20.9719 98.7922 20.9044 99.1587 20.7693C99.5445 20.6343 99.911 20.4511 100.258 20.2196C100.625 19.9688 100.953 19.6602 101.242 19.2937C101.551 18.9272 101.801 18.5125 101.994 18.0495L101.936 15.6191L102.602 15.7637C102.255 16.0145 101.85 16.217 101.387 16.3714C100.924 16.5064 100.441 16.6125 99.9399 16.6896C99.4577 16.7668 98.9754 16.8536 98.4932 16.95C98.011 17.0465 97.577 17.1719 97.1912 17.3262C96.8247 17.4805 96.5257 17.6927 96.2942 17.9627C96.082 18.2135 95.9759 18.5704 95.9759 19.0333C95.9759 19.6313 96.1688 20.1039 96.5546 20.4511C96.9404 20.7983 97.4419 20.9719 98.0592 20.9719Z" fill="url(#paint4_linear_730_6)"/>
<path d="M74.9834 23.5752L80.0179 15.9655L74.9834 8.38477H79.7865L82.5641 14.1137H83.056L85.8337 8.38477H90.6078L85.5733 15.9655L90.6657 23.5752H85.8916L83.056 17.8173H82.5641L79.7865 23.5752H74.9834Z" fill="url(#paint5_linear_730_6)"/>
<path d="M67.2164 23.981C65.9626 23.981 64.8438 23.8074 63.86 23.4602C62.8956 23.113 62.0758 22.6115 61.4006 21.9556C60.7255 21.2998 60.2047 20.4896 59.8382 19.5252C59.491 18.5607 59.3174 17.4709 59.3174 16.2556C59.3174 15.0597 59.4813 13.9602 59.8093 12.9571C60.1565 11.9348 60.658 11.0571 61.3138 10.3241C61.9697 9.57185 62.7702 8.99316 63.7154 8.58809C64.6605 8.18301 65.7311 7.98047 66.9271 7.98047C68.0844 7.98047 69.1164 8.17336 70.023 8.55915C70.9296 8.92565 71.6819 9.48504 72.2799 10.2373C72.8971 10.9896 73.3408 11.9155 73.6108 13.015C73.9002 14.0952 74.0063 15.3394 73.9291 16.7475L62.0083 16.8632V14.5774L71.5276 14.4906L70.0519 15.648C70.187 14.6257 70.1194 13.7866 69.8494 13.1307C69.5793 12.4749 69.1839 11.9927 68.6631 11.684C68.1616 11.3754 67.6022 11.2211 66.9849 11.2211C66.2519 11.2211 65.6057 11.414 65.0463 11.7998C64.4869 12.1856 64.0529 12.7546 63.7443 13.5069C63.4357 14.2399 63.2814 15.1272 63.2814 16.1688C63.2814 17.8084 63.6382 19.014 64.3519 19.7856C65.0849 20.5572 66.0397 20.9429 67.2164 20.9429C67.7565 20.9429 68.2098 20.8754 68.5763 20.7404C68.9621 20.5861 69.2707 20.3932 69.5022 20.1617C69.7529 19.9303 69.9458 19.6698 70.0809 19.3805C70.2352 19.0912 70.3606 18.8018 70.457 18.5125L74.0738 19.2937C73.9002 20.0074 73.6398 20.6536 73.2926 21.2323C72.9646 21.7917 72.521 22.2836 71.9616 22.7079C71.4022 23.113 70.7271 23.4216 69.9362 23.6338C69.1646 23.8653 68.258 23.981 67.2164 23.981Z" fill="url(#paint6_linear_730_6)"/>
<path d="M54.3831 23.9229C52.6856 23.9229 51.4318 23.4792 50.6216 22.5919C49.8308 21.6853 49.4353 20.2483 49.4353 18.2808V11.6548H47.2363L47.2942 8.38529H48.8277C49.4257 8.38529 49.8693 8.29849 50.1587 8.12488C50.448 7.95128 50.6216 7.633 50.6795 7.17006L51.0556 5H53.4282V8.38529H57.2765V11.7706H53.4282V18.1071C53.4282 18.8016 53.5922 19.3031 53.9201 19.6117C54.248 19.9204 54.7496 20.0747 55.4247 20.0747C55.7912 20.0747 56.1384 20.0361 56.4663 19.9589C56.8135 19.8818 57.1125 19.7564 57.3633 19.5828V23.46C56.7653 23.6528 56.2155 23.7782 55.714 23.8361C55.2125 23.894 54.7688 23.9229 54.3831 23.9229Z" fill="url(#paint7_linear_730_6)"/>
<defs>
<linearGradient id="paint0_linear_730_6" x1="58.2083" y1="16.5" x2="-13.75" y2="16.5" gradientUnits="userSpaceOnUse">
<stop stop-color="#262626"/>
<stop offset="1" stop-color="white"/>
</linearGradient>
<linearGradient id="paint1_linear_730_6" x1="20.3086" y1="20.7629" x2="239.726" y2="23.5759" gradientUnits="userSpaceOnUse">
<stop stop-color="white"/>
<stop offset="1" stop-color="white" stop-opacity="0"/>
</linearGradient>
<linearGradient id="paint2_linear_730_6" x1="20.3086" y1="20.7629" x2="239.726" y2="23.576" gradientUnits="userSpaceOnUse">
<stop stop-color="white"/>
<stop offset="1" stop-color="white" stop-opacity="0"/>
</linearGradient>
<linearGradient id="paint3_linear_730_6" x1="20.3085" y1="20.7629" x2="239.725" y2="23.5759" gradientUnits="userSpaceOnUse">
<stop stop-color="white"/>
<stop offset="1" stop-color="white" stop-opacity="0"/>
</linearGradient>
<linearGradient id="paint4_linear_730_6" x1="20.3082" y1="20.7629" x2="239.725" y2="23.576" gradientUnits="userSpaceOnUse">
<stop stop-color="white"/>
<stop offset="1" stop-color="white" stop-opacity="0"/>
</linearGradient>
<linearGradient id="paint5_linear_730_6" x1="20.308" y1="20.7621" x2="239.725" y2="23.5752" gradientUnits="userSpaceOnUse">
<stop stop-color="white"/>
<stop offset="1" stop-color="white" stop-opacity="0"/>
</linearGradient>
<linearGradient id="paint6_linear_730_6" x1="20.3085" y1="20.7629" x2="239.725" y2="23.576" gradientUnits="userSpaceOnUse">
<stop stop-color="white"/>
<stop offset="1" stop-color="white" stop-opacity="0"/>
</linearGradient>
<linearGradient id="paint7_linear_730_6" x1="20.3083" y1="20.7627" x2="239.725" y2="23.5757" gradientUnits="userSpaceOnUse">
<stop stop-color="white"/>
<stop offset="1" stop-color="white" stop-opacity="0"/>
</linearGradient>
</defs>
</svg>
